<svg width="112" height="112" viewBox="0 0 112 112" fill="none" xmlns="http://www.w3.org/2000/svg">
<path d="M56.0041 0C40.7953 0 38.8866 0.0665011 32.9132 0.338334C26.9514 0.611334 22.8821 1.55517 19.3214 2.94C15.6382 4.37033 12.5138 6.28367 9.4011 9.3975C6.28607 12.5102 4.37271 15.6345 2.9377 19.3165C1.54935 22.8783 0.60434 26.9488 0.336004 32.9082C0.0700009 38.8815 0 40.7913 0 56C0 71.2087 0.0676684 73.1115 0.338338 79.0848C0.612507 85.0465 1.55635 89.1158 2.94003 92.6765C4.37155 96.3597 6.2849 99.484 9.39877 102.597C12.5103 105.712 15.6347 107.63 19.3155 109.06C22.8786 110.445 26.9491 111.389 32.9097 111.662C38.8831 111.933 40.7906 112 55.9983 112C71.2082 112 73.1111 111.933 79.0845 111.662C85.0462 111.389 89.1203 110.445 92.6833 109.06C96.3653 107.63 99.485 105.712 102.597 102.597C105.712 99.484 107.625 96.3597 109.06 92.6777C110.437 89.1158 111.382 85.0453 111.662 79.086C111.93 73.1127 112 71.2087 112 56C112 40.7913 111.93 38.8827 111.662 32.9093C111.382 26.9477 110.437 22.8783 109.06 19.3177C107.625 15.6345 105.712 12.5102 102.597 9.3975C99.4815 6.2825 96.3665 4.36917 92.6798 2.94C89.1098 1.55517 85.0381 0.611334 79.0763 0.338334C73.1029 0.0665011 71.2012 0 55.9877 0H56.0041ZM50.9804 10.0917C52.4714 10.0893 54.1351 10.0917 56.0041 10.0917C70.9562 10.0917 72.7284 10.1453 78.633 10.4137C84.0931 10.6633 87.0564 11.5757 89.0304 12.3422C91.6438 13.3572 93.507 14.5705 95.4658 16.5305C97.4259 18.4905 98.6392 20.3572 99.6565 22.9705C100.423 24.9422 101.337 27.9055 101.585 33.3655C101.853 39.2688 101.912 41.0422 101.912 55.9872C101.912 70.9322 101.853 72.7055 101.585 78.6088C101.335 84.0688 100.423 87.0322 99.6565 89.0038C98.6415 91.6172 97.4259 93.478 95.4658 95.4368C93.5058 97.3968 91.645 98.6102 89.0304 99.6252C87.0587 100.395 84.0931 101.305 78.633 101.555C72.7296 101.823 70.9562 101.882 56.0041 101.882C41.0508 101.882 39.2786 101.823 33.3752 101.555C27.9151 101.303 24.9518 100.39 22.9766 99.624C20.3632 98.609 18.4965 97.3957 16.5365 95.4357C14.5765 93.4757 13.3631 91.6137 12.3458 88.9992C11.5793 87.0275 10.6658 84.0642 10.4173 78.6042C10.1489 72.7008 10.0953 70.9275 10.0953 55.9732C10.0953 41.0188 10.1489 39.2548 10.4173 33.3515C10.6669 27.8915 11.5793 24.9282 12.3458 22.9542C13.3608 20.3408 14.5765 18.4742 16.5365 16.5142C18.4965 14.5542 20.3632 13.3408 22.9766 12.3235C24.9506 11.5535 27.9151 10.6435 33.3752 10.3927C38.5412 10.1593 40.5433 10.0893 50.9804 10.0777V10.0917Z" fill="#78716C"/>
<path d="M85.7763 19.2524C84.4471 19.2524 83.1477 19.6466 82.0426 20.3851C80.9374 21.1236 80.0761 22.1733 79.5676 23.4013C79.059 24.6294 78.926 25.9807 79.1855 27.2843C79.445 28.5879 80.0853 29.7853 81.0253 30.725C81.9654 31.6647 83.163 32.3046 84.4667 32.5636C85.7704 32.8226 87.1217 32.6892 88.3496 32.1802C89.5775 31.6713 90.6268 30.8096 91.365 29.7042C92.1031 28.5988 92.4968 27.2993 92.4964 25.9701C92.4964 22.2601 89.4863 19.2524 85.7763 19.2524Z" fill="#78716C"/>
<path fill-rule="evenodd" clip-rule="evenodd" d="M55.8837 27.1041C40.0017 27.1041 27.125 39.9806 27.125 55.8624C27.125 71.7443 40.0017 84.6149 55.8837 84.6149C71.7657 84.6149 84.6388 71.7443 84.6388 55.8624C84.6388 39.9806 71.7657 27.1041 55.8837 27.1041ZM56 74.3751C66.1483 74.3751 74.375 66.1483 74.375 56.0001C74.375 45.8519 66.1483 37.6251 56 37.6251C45.8518 37.6251 37.625 45.8519 37.625 56.0001C37.625 66.1483 45.8518 74.3751 56 74.3751Z" fill="#78716C"/>
</svg>
