<svg width="52" height="52" viewBox="0 0 52 52" fill="none" xmlns="http://www.w3.org/2000/svg">
<path fill-rule="evenodd" clip-rule="evenodd" d="M25.9572 51.44C11.6193 51.44 0.000488281 39.9973 0.000488281 25.8861C0.000488281 11.775 11.6193 0.334961 25.9572 0.334961C40.2924 0.334961 51.914 11.775 51.914 25.8861C51.914 39.9973 40.2924 51.44 25.9572 51.44ZM2.4021 25.8864C2.4021 35.6952 8.60213 44.0754 17.3517 47.45C17.1459 45.619 16.9624 42.8083 17.4351 40.8049C17.8605 38.9986 20.1931 29.2965 20.1931 29.2965C20.1931 29.2965 19.4897 27.9089 19.4897 25.859C19.4897 22.6378 21.3831 20.2348 23.7463 20.2348C25.7509 20.2348 26.7212 21.7182 26.7212 23.4971C26.7212 25.4841 25.4368 28.4536 24.7723 31.2068C24.219 33.514 25.9483 35.3914 28.256 35.3914C32.4375 35.3914 35.6515 31.0508 35.6515 24.7862C35.6515 19.2413 31.6062 15.366 25.826 15.366C19.1338 15.366 15.2053 20.3087 15.2053 25.4157C15.2053 27.4053 15.981 29.5401 16.9541 30.7005C17.1459 30.9304 17.1737 31.1302 17.1181 31.3656C16.9402 32.0963 16.5426 33.67 16.4648 33.9902C16.3619 34.4144 16.1228 34.5047 15.6752 34.3022C12.7392 32.9557 10.9042 28.7245 10.9042 25.3308C10.9042 18.0262 16.2952 11.3154 26.446 11.3154C34.6061 11.3154 40.948 17.0409 40.948 24.6904C40.948 32.671 35.835 39.0944 28.7425 39.0944C26.357 39.0944 24.1161 37.8738 23.3488 36.4342C23.3488 36.4342 22.1699 40.8542 21.8835 41.938C21.3525 43.9496 19.9179 46.4702 18.9615 48.0083C21.1607 48.6816 23.4989 49.0428 25.9261 49.0428C38.9183 49.0428 49.4501 38.6757 49.4501 25.8864C49.4501 13.0944 38.9183 2.72997 25.9261 2.72997C12.9338 2.72997 2.4021 13.0944 2.4021 25.8864Z" fill="#78716C"/>
</svg>
