<svg width="10" height="10" viewBox="0 0 10 10" fill="none" xmlns="http://www.w3.org/2000/svg">
<g clip-path="url(#clip0_1073_52)">
<path d="M7.50976 9.14899C7.44557 9.14924 7.38294 9.12923 7.33078 9.09181L4.8794 7.3146L2.42802 9.09181C2.37565 9.1298 2.31255 9.15014 2.24786 9.14991C2.18316 9.14967 2.12021 9.12887 2.06812 9.0905C2.01602 9.05214 1.97748 8.9982 1.95806 8.93648C1.93864 8.87477 1.93935 8.80848 1.96008 8.7472L2.91616 5.91536L0.438287 4.21611C0.384614 4.17935 0.344105 4.12638 0.322679 4.06495C0.301252 4.00353 0.300031 3.93686 0.319193 3.87468C0.338356 3.81251 0.376897 3.7581 0.429187 3.71939C0.481477 3.68069 0.544775 3.65971 0.609832 3.65954H3.66677L4.5893 0.820469C4.60917 0.759174 4.64795 0.705749 4.70007 0.667858C4.75219 0.629968 4.81497 0.609558 4.8794 0.609558C4.94384 0.609558 5.00662 0.629968 5.05874 0.667858C5.11086 0.705749 5.14963 0.759174 5.16951 0.820469L6.09204 3.6605H9.14897C9.21411 3.66046 9.27755 3.68129 9.33 3.71992C9.38244 3.75855 9.42114 3.81296 9.44042 3.87518C9.45971 3.9374 9.45856 4.00416 9.43716 4.06568C9.41575 4.1272 9.37521 4.18025 9.32147 4.21707L6.84264 5.91536L7.79815 8.74643C7.81363 8.79227 7.81799 8.84113 7.81086 8.88898C7.80372 8.93683 7.78531 8.9823 7.75714 9.02163C7.72896 9.06096 7.69183 9.09302 7.64882 9.11516C7.60581 9.13731 7.55814 9.14891 7.50976 9.14899Z" fill="#78716C"/>
</g>
<defs>
<clipPath id="clip0_1073_52">
<rect width="9.75902" height="9.75902" fill="white"/>
</clipPath>
</defs>
</svg>
